<svg width="18" height="18" viewBox="0 0 18 18" fill="none" xmlns="http://www.w3.org/2000/svg">
<path fill-rule="evenodd" clip-rule="evenodd" d="M17.7092 7.46428L14.0554 11.0088L14.9187 16.0183C14.9793 16.3773 14.8288 16.7432 14.5313 16.9593C14.3645 17.079 14.1638 17.1429 13.9667 17.1429C13.8127 17.1429 13.6575 17.1045 13.5152 17.0325L8.99921 14.666L4.48322 17.0325C4.15773 17.2009 3.76458 17.1731 3.46709 16.9593C3.17077 16.7432 3.01911 16.3796 3.08327 16.0183L3.9454 11.0111L0.291543 7.46428C0.0278864 7.20869 -0.0654434 6.82647 0.0465524 6.47911C0.160881 6.13174 0.46187 5.87732 0.827023 5.82388L5.87616 5.09313L8.13358 0.537893C8.29691 0.206792 8.63173 0 8.99921 0C9.3667 0 9.70152 0.206792 9.86485 0.535569L12.1246 5.09081L17.1737 5.82388C17.5366 5.875 17.8387 6.12942 17.9519 6.47911C18.0674 6.82647 17.9705 7.20869 17.7092 7.46428Z" fill="#C9C9C9"/>
</svg>
